<?xml version="1.0" standalone="no"?><!DOCTYPE svg PUBLIC "-//W3C//DTD SVG 1.1//EN" "http://www.w3.org/Graphics/SVG/1.1/DTD/svg11.dtd"><svg class="icon" width="200px" height="200.00px" viewBox="0 0 1024 1024" version="1.1" xmlns="http://www.w3.org/2000/svg"><path fill="#000000" d="M548.949333 874.666667a42.709333 42.709333 0 0 1 73.941334 42.666666A128.128 128.128 0 0 1 512 981.333333a128.128 128.128 0 0 1-110.890667-64 42.666667 42.666667 0 0 1 73.941334-42.666666 42.666667 42.666667 0 0 0 73.856 0zM512 42.666667a298.752 298.752 0 0 1 298.666667 298.666666c0 91.477333 14.336 148.394667 33.066666 188.117334 14.08 29.866667 31.488 51.754667 51.285334 73.173333l20.522666 21.589333 0.938667 1.024a85.333333 85.333333 0 0 1-56.96 142.506667L853.333333 768H170.666667a85.418667 85.418667 0 0 1-63.018667-142.848l0.896-0.981333c28.330667-29.226667 52.906667-54.954667 71.68-94.72 18.773333-39.68 33.109333-96.64 33.109333-188.16a298.794667 298.794667 0 0 1 298.666667-298.666667z m0 85.333333a213.418667 213.418667 0 0 0-213.333333 213.333333c0 100.394667-15.786667 170.581333-41.258667 224.554667-25.173333 53.333333-58.624 87.765333-86.698667 116.736H853.333333c-28.16-29.013333-61.525333-63.445333-86.698666-116.736C741.12 511.914667 725.333333 441.728 725.333333 341.333333a213.333333 213.333333 0 0 0-213.333333-213.333333zM135.808 60.672a42.752 42.752 0 0 1 69.717333 49.28C158.378667 176.768 128 253.653333 128 341.333333a42.666667 42.666667 0 1 1-85.333333 0c0-108.629333 37.888-202.410667 93.141333-280.661333z m692.906667-10.24a42.752 42.752 0 0 1 59.477333 10.24C943.445333 138.922667 981.333333 232.704 981.333333 341.333333a42.666667 42.666667 0 1 1-85.333333 0c0-87.68-30.378667-164.565333-77.525333-231.381333a42.709333 42.709333 0 0 1 10.24-59.52z" /></svg>