<?xml version="1.0" standalone="no"?><!DOCTYPE svg PUBLIC "-//W3C//DTD SVG 1.1//EN" "http://www.w3.org/Graphics/SVG/1.1/DTD/svg11.dtd"><svg class="icon" width="200px" height="200.00px" viewBox="0 0 1024 1024" version="1.1" xmlns="http://www.w3.org/2000/svg"><path fill="#000000" d="M896 597.333333a42.666667 42.666667 0 0 1 42.666667 42.666667v170.666667a128 128 0 0 1-128 128H213.333333a128 128 0 0 1-128-128v-170.666667a42.666667 42.666667 0 1 1 85.333334 0v170.666667a42.666667 42.666667 0 0 0 42.666666 42.666666h597.333334a42.666667 42.666667 0 0 0 42.666666-42.666666v-170.666667a42.666667 42.666667 0 0 1 42.666667-42.666667zM512 85.333333a42.666667 42.666667 0 0 1 42.666667 42.666667v409.002667l140.501333-140.501334a42.666667 42.666667 0 1 1 60.330667 60.330667l-213.333334 213.333333a42.837333 42.837333 0 0 1-17.706666 10.666667l-2.645334 0.64-1.450666 0.341333-1.322667 0.170667A43.008 43.008 0 0 1 512 682.666667c-2.432 0-4.778667-0.298667-7.082667-0.682667-0.426667-0.042667-0.853333-0.085333-1.322666-0.213333l-1.450667-0.298667-2.645333-0.682667a42.496 42.496 0 0 1-17.664-10.624l-213.333334-213.333333a42.666667 42.666667 0 1 1 60.330667-60.330667L469.333333 537.002667V128a42.666667 42.666667 0 0 1 42.666667-42.666667z" /></svg>