<?xml version="1.0" standalone="no"?><!DOCTYPE svg PUBLIC "-//W3C//DTD SVG 1.1//EN" "http://www.w3.org/Graphics/SVG/1.1/DTD/svg11.dtd"><svg class="icon" width="200px" height="200.00px" viewBox="0 0 1024 1024" version="1.1" xmlns="http://www.w3.org/2000/svg"><path fill="#000000" d="M578.901333 87.466667a289.792 289.792 0 0 1 184.021334 38.826666l20.053333 11.946667 0.256 0.128a42.666667 42.666667 0 0 0 26.368 5.973333l3.925333-0.64 40.32-8.106666-0.341333-3.712a42.666667 42.666667 0 0 1 85.034667-7.765334l42.666666 469.333334A42.794667 42.794667 0 0 1 938.666667 640h-37.546667a133.205333 133.205333 0 0 1-151.765333 131.84c-1.706667 8.832-4.181333 17.493333-7.637334 25.813333a133.290667 133.290667 0 0 1-191.744 63.146667 132.992 132.992 0 0 1-29.141333 44.032 133.205333 133.205333 0 0 1-188.330667 0l-277.333333-277.333333a42.709333 42.709333 0 0 1-12.330667-34.048l42.666667-469.333334A42.666667 42.666667 0 0 1 170.666667 128h292.394666a289.578667 289.578667 0 0 1 115.84-40.533333zM163.114667 213.333333l-33.450667 367.957334 263.210667 263.253333a47.872 47.872 0 0 0 70.826666-64.213333l-3.2-3.498667-21.333333-21.333333a42.666667 42.666667 0 1 1 60.373333-60.330667l85.333334 85.333333a48.042667 48.042667 0 0 0 52.096 10.368 48.042667 48.042667 0 0 0 25.941333-25.898666 47.957333 47.957333 0 0 0-10.112-51.797334l-85.674667-85.674666a42.709333 42.709333 0 0 1 60.373334-60.373334l106.666666 106.666667a47.914667 47.914667 0 0 0 67.626667 0 47.786667 47.786667 0 0 0 0-67.626667l-165.546667-165.546666a85.376 85.376 0 0 0-120.576 0l-37.546666 37.546666a133.205333 133.205333 0 0 1-188.330667-188.373333L366.293333 213.333333H163.114667z m556.117333-13.738666a204.458667 204.458667 0 0 0-249.173333 30.72l-119.893334 119.893333A47.914667 47.914667 0 0 0 384 431.786667c12.672 0 24.832-5.077333 33.792-14.037334l37.546667-37.546666h0.042666a170.666667 170.666667 0 0 1 235.093334-5.802667l6.144 5.802667 165.546666 165.546666c2.816 2.858667 5.546667 5.845333 8.064 8.874667h21.717334l-30.336-333.653333-31.488 6.4-0.128 0.042666a128 128 0 0 1-90.666667-15.914666l-20.053333-11.904-0.042667-0.042667z"  /></svg>