<?xml version="1.0" standalone="no"?><!DOCTYPE svg PUBLIC "-//W3C//DTD SVG 1.1//EN" "http://www.w3.org/Graphics/SVG/1.1/DTD/svg11.dtd"><svg class="icon" width="200px" height="200.00px" viewBox="0 0 1024 1024" version="1.1" xmlns="http://www.w3.org/2000/svg"><path fill="#000000" d="M353.834667 609.834667a42.666667 42.666667 0 1 1 60.330666 60.330666l-170.666666 170.666667a42.666667 42.666667 0 0 1-60.330667 0l-85.333333-85.333333a42.666667 42.666667 0 1 1 60.330666-60.330667L213.333333 750.336l140.501334-140.501333zM896 725.333333a42.666667 42.666667 0 1 1 0 85.333334h-341.333333a42.666667 42.666667 0 1 1 0-85.333334h341.333333z m0-256a42.666667 42.666667 0 1 1 0 85.333334h-341.333333a42.666667 42.666667 0 1 1 0-85.333334h341.333333zM353.834667 183.168a42.666667 42.666667 0 1 1 60.330666 60.330667l-170.666666 170.666666a42.666667 42.666667 0 0 1-60.330667 0l-85.333333-85.333333a42.666667 42.666667 0 1 1 60.330666-60.330667L213.333333 323.669333l140.501334-140.501333zM896 213.333333a42.666667 42.666667 0 0 1 0 85.333334h-341.333333a42.666667 42.666667 0 0 1 0-85.333334h341.333333z" /></svg>