<?xml version="1.0" standalone="no"?><!DOCTYPE svg PUBLIC "-//W3C//DTD SVG 1.1//EN" "http://www.w3.org/Graphics/SVG/1.1/DTD/svg11.dtd"><svg class="icon" width="200px" height="200.00px" viewBox="0 0 1024 1024" version="1.1" xmlns="http://www.w3.org/2000/svg"><path fill="#000000" d="M512 42.666667c259.2 0 469.333333 210.133333 469.333333 469.333333a468.992 468.992 0 0 1-237.397333 407.893333A466.944 466.944 0 0 1 512 981.333333c-84.437333 0-163.541333-22.442667-232.021333-61.44A468.992 468.992 0 0 1 42.666667 512C42.709333 252.8 252.842667 42.666667 512.042667 42.666667zM384 768a42.666667 42.666667 0 0 0-42.666667 42.666667v45.269333A382.293333 382.293333 0 0 0 512 896a382.293333 382.293333 0 0 0 170.666667-40.064V810.666667a42.666667 42.666667 0 0 0-42.666667-42.666667H384z m128-640a384 384 0 0 0-255.402667 670.677333A128 128 0 0 1 384 682.666667h256a128 128 0 0 1 127.36 116.010666A384 384 0 0 0 512 128z m0 128a170.666667 170.666667 0 1 1 0 341.333333 170.666667 170.666667 0 0 1 0-341.333333z m0 85.333333a85.333333 85.333333 0 1 0 0 170.666667 85.333333 85.333333 0 0 0 0-170.666667z"  /></svg>