<?xml version="1.0" standalone="no"?><!DOCTYPE svg PUBLIC "-//W3C//DTD SVG 1.1//EN" "http://www.w3.org/Graphics/SVG/1.1/DTD/svg11.dtd"><svg class="icon" width="200px" height="200.00px" viewBox="0 0 1024 1024" version="1.1" xmlns="http://www.w3.org/2000/svg"><path fill="#000000" d="M896 896a42.666667 42.666667 0 0 1 0 85.333333H128a42.666667 42.666667 0 1 1 0-85.333333h768zM256 426.666667a42.666667 42.666667 0 0 1 42.666667 42.666666v298.666667a42.666667 42.666667 0 0 1-85.333334 0v-298.666667a42.666667 42.666667 0 0 1 42.666667-42.666666z m170.666667 0a42.666667 42.666667 0 0 1 42.666666 42.666666v298.666667a42.666667 42.666667 0 0 1-85.333333 0v-298.666667a42.666667 42.666667 0 0 1 42.666667-42.666666z m170.666666 0a42.666667 42.666667 0 0 1 42.666667 42.666666v298.666667a42.666667 42.666667 0 0 1-85.333333 0v-298.666667a42.666667 42.666667 0 0 1 42.666666-42.666666z m170.666667 0a42.666667 42.666667 0 0 1 42.666667 42.666666v298.666667a42.666667 42.666667 0 0 1-85.333334 0v-298.666667a42.666667 42.666667 0 0 1 42.666667-42.666666zM512.128 42.538667c19.456 0.085333 38.698667 4.565333 56.149333 13.184l335.616 164.096v0.042666c60.970667 29.866667 39.68 121.472-28.16 121.472H148.224c-67.968 0-88.746667-91.733333-28.117333-121.472L455.68 55.466667l0.128-0.042667c17.536-8.533333 36.821333-12.928 56.32-12.885333z m-0.256 85.333333c-6.528 0-12.970667 1.450667-18.773333 4.266667h-0.085334L240.256 256h543.317333L530.773333 132.394667l-0.128-0.085334a42.88 42.88 0 0 0-18.773333-4.437333z"  /></svg>