<?xml version="1.0" standalone="no"?><!DOCTYPE svg PUBLIC "-//W3C//DTD SVG 1.1//EN" "http://www.w3.org/Graphics/SVG/1.1/DTD/svg11.dtd"><svg class="icon" width="200px" height="200.00px" viewBox="0 0 1024 1024" version="1.1" xmlns="http://www.w3.org/2000/svg"><path fill="#000000" d="M512 597.333333a213.333333 213.333333 0 0 1 213.333333 213.333334v85.333333a42.666667 42.666667 0 1 1-85.333333 0v-85.333333a128 128 0 0 0-115.328-127.36L512 682.666667H256a128 128 0 0 0-128 128v85.333333a42.666667 42.666667 0 1 1-85.333333 0v-85.333333a213.333333 213.333333 0 0 1 213.333333-213.333334h256z m257.365333 37.546667a42.666667 42.666667 0 0 1 51.968-30.634667A213.333333 213.333333 0 0 1 981.333333 810.666667V896a42.666667 42.666667 0 0 1-85.333333 0v-85.290667l-0.426667-10.581333a128 128 0 0 0-95.573333-113.28 42.666667 42.666667 0 0 1-30.634667-51.968zM384 85.333333a213.333333 213.333333 0 1 1 0 426.666667A213.333333 213.333333 0 0 1 384 85.333333z m257.365333 37.418667a42.666667 42.666667 0 0 1 52.010667-30.592 213.333333 213.333333 0 0 1 0 413.013333 42.666667 42.666667 0 0 1-21.418667-82.602666 128.042667 128.042667 0 0 0 0-247.808 42.666667 42.666667 0 0 1-30.592-52.053334zM384 170.666667a128 128 0 1 0 0 256 128 128 0 0 0 0-256z"  /></svg>