<?xml version="1.0" standalone="no"?><!DOCTYPE svg PUBLIC "-//W3C//DTD SVG 1.1//EN" "http://www.w3.org/Graphics/SVG/1.1/DTD/svg11.dtd"><svg class="icon" width="200px" height="200.00px" viewBox="0 0 1024 1024" version="1.1" xmlns="http://www.w3.org/2000/svg"><path fill="#000000" d="M597.333333 42.666667a128 128 0 0 1 128 128v42.666666h128a128 128 0 0 1 128 128v426.666667a128 128 0 0 1-128 128H170.666667a128 128 0 0 1-128-128V341.333333a128 128 0 0 1 128-128h128V170.666667a128 128 0 0 1 128-128h170.666666z m128 768h128a42.666667 42.666667 0 0 0 42.666667-42.666667V341.333333a42.666667 42.666667 0 0 0-42.666667-42.666666h-128v512z m-341.333333 0h256V298.666667H384v512zM170.666667 298.666667a42.666667 42.666667 0 0 0-42.666667 42.666666v426.666667a42.666667 42.666667 0 0 0 42.666667 42.666667h128V298.666667H170.666667z m256-170.666667a42.666667 42.666667 0 0 0-42.666667 42.666667v42.666666h256V170.666667a42.666667 42.666667 0 0 0-38.442667-42.453334L597.333333 128h-170.666666z"  /></svg>