<?xml version="1.0" standalone="no"?><!DOCTYPE svg PUBLIC "-//W3C//DTD SVG 1.1//EN" "http://www.w3.org/Graphics/SVG/1.1/DTD/svg11.dtd"><svg class="icon" width="200px" height="200.00px" viewBox="0 0 1024 1024" version="1.1" xmlns="http://www.w3.org/2000/svg"><path fill="#000000" d="M511.573333 84.736A128.128 128.128 0 0 1 622.933333 149.504L964.138667 746.666667l3.925333 7.424A128.042667 128.042667 0 0 1 853.418667 938.666667H170.666667v-0.042667a128 128 0 0 1-111.36-63.445333 128.085333 128.085333 0 0 1-0.298667-128.341334l341.290667-597.333333a128 128 0 0 1 111.274666-64.768z m0 85.333333a42.666667 42.666667 0 0 0-37.12 21.632v0.128l-341.333333 597.333334-0.170667 0.170666a42.752 42.752 0 0 0 37.333334 64H853.333333a42.837333 42.837333 0 0 0 36.906667-21.333333 42.794667 42.794667 0 0 0 0-42.666667l-0.085333-0.170666-341.333334-597.333334-0.085333-0.128a42.794667 42.794667 0 0 0-37.12-21.632zM512.426667 682.666667a42.666667 42.666667 0 1 1 0 85.333333H512a42.666667 42.666667 0 1 1 0-85.333333h0.426667zM512 341.333333a42.666667 42.666667 0 0 1 42.666667 42.666667v170.666667a42.666667 42.666667 0 1 1-85.333334 0V384a42.666667 42.666667 0 0 1 42.666667-42.666667z" /></svg>