<?xml version="1.0" standalone="no"?><!DOCTYPE svg PUBLIC "-//W3C//DTD SVG 1.1//EN" "http://www.w3.org/Graphics/SVG/1.1/DTD/svg11.dtd"><svg class="icon" width="200px" height="200.00px" viewBox="0 0 1024 1024" version="1.1" xmlns="http://www.w3.org/2000/svg"><path fill="#000000" d="M628.992 47.36a298.752 298.752 0 0 1 176.64 21.76 42.666667 42.666667 0 0 1 12.629333 68.992l-160.469333 160.426667-0.128 0.085333L725.333333 366.293333l160.597334-160.554666 3.84-3.413334a42.752 42.752 0 0 1 65.194666 16 298.709333 298.709333 0 0 1-367.232 406.186667l-275.114666 275.2a133.205333 133.205333 0 0 1-188.330667-188.330667l275.114667-275.2a298.666667 298.666667 0 0 1 229.589333-388.864z m77.44 81.834667a213.418667 213.418667 0 0 0-174.762667 61.141333 213.333333 213.333333 0 0 0-43.52 238.805333 42.666667 42.666667 0 0 1-8.704 47.744l-294.826666 294.826667a47.872 47.872 0 0 0 67.669333 67.669333l294.826667-294.826666 4.992-4.266667c12.288-8.96 28.586667-10.837333 42.752-4.437333a213.461333 213.461333 0 0 0 238.805333-43.52 213.504 213.504 0 0 0 61.098667-174.762667l-109.653334 109.653333a85.333333 85.333333 0 0 1-119.466666 0l-0.341334-0.256-68.266666-68.266666-0.298667-0.298667a85.333333 85.333333 0 0 1 0-119.466667l0.725333-0.725333 108.970667-109.013333z" /></svg>