<?xml version="1.0" standalone="no"?><!DOCTYPE svg PUBLIC "-//W3C//DTD SVG 1.1//EN" "http://www.w3.org/Graphics/SVG/1.1/DTD/svg11.dtd"><svg class="icon" width="200px" height="200.00px" viewBox="0 0 1024 1024" version="1.1" xmlns="http://www.w3.org/2000/svg"><path fill="#000000" d="M384 42.666667c10.112 0 19.968 2.858667 28.458667 8.192l3.541333 2.474666 3.328 2.688c6.442667 5.717333 11.434667 12.885333 14.506667 20.906667l1.493333 4.522667L640 809.728l69.418667-246.997333A128 128 0 0 1 832.853333 469.333333H938.666667a42.666667 42.666667 0 1 1 0 85.333334h-105.898667a42.709333 42.709333 0 0 0-38.784 24.618666l-2.389333 6.528-100.266667 356.693334-1.493333 4.522666a53.333333 53.333333 0 0 1-99.669334 0l-1.493333-4.48L383.957333 214.186667l-69.376 247.04A128 128 0 0 1 191.701333 554.666667H85.333333a42.666667 42.666667 0 1 1 0-85.333334h106.112a42.709333 42.709333 0 0 0 40.96-31.146666l100.266667-356.693334 1.493333-4.522666A53.333333 53.333333 0 0 1 384 42.666667z" /></svg>