<?xml version="1.0" standalone="no"?><!DOCTYPE svg PUBLIC "-//W3C//DTD SVG 1.1//EN" "http://www.w3.org/Graphics/SVG/1.1/DTD/svg11.dtd"><svg class="icon" width="200px" height="200.00px" viewBox="0 0 1024 1024" version="1.1" xmlns="http://www.w3.org/2000/svg"><path fill="#000000" d="M512 42.666667c259.2 0 469.333333 210.133333 469.333333 469.333333s-210.133333 469.333333-469.333333 469.333333S42.666667 771.2 42.666667 512 252.8 42.666667 512 42.666667z m0 85.333333a384 384 0 1 0 0 768 384 384 0 0 0 0-768z m0.426667 512a42.666667 42.666667 0 1 1 0 85.333333H512a42.666667 42.666667 0 1 1 0-85.333333h0.426667zM512 298.666667a42.666667 42.666667 0 0 1 42.666667 42.666666v170.666667a42.666667 42.666667 0 1 1-85.333334 0V341.333333a42.666667 42.666667 0 0 1 42.666667-42.666666z"  /></svg>