<?xml version="1.0" standalone="no"?><!DOCTYPE svg PUBLIC "-//W3C//DTD SVG 1.1//EN" "http://www.w3.org/Graphics/SVG/1.1/DTD/svg11.dtd"><svg class="icon" width="200px" height="200.00px" viewBox="0 0 1024 1024" version="1.1" xmlns="http://www.w3.org/2000/svg"><path fill="#000000" d="M128 281.6a42.666667 42.666667 0 0 1 42.666667 42.666667v546.133333a25.685333 25.685333 0 0 0 25.6 25.642667h418.133333a42.666667 42.666667 0 0 1 0 85.333333H196.266667a110.976 110.976 0 0 1-110.933334-110.933333V324.266667a42.666667 42.666667 0 0 1 42.666667-42.666667zM682.666667 42.666667a42.666667 42.666667 0 0 1 30.165333 12.501333l170.666667 170.666667A42.666667 42.666667 0 0 1 896 256v426.666667a128 128 0 0 1-128 128H384a128 128 0 0 1-128-128V170.666667a128 128 0 0 1 128-128h298.666667zM384 128a42.666667 42.666667 0 0 0-42.666667 42.666667v512a42.666667 42.666667 0 0 0 42.666667 42.666666h384a42.666667 42.666667 0 0 0 42.666667-42.666666V341.333333h-85.333334a128 128 0 0 1-128-128V128H384z m298.666667 85.333333a42.666667 42.666667 0 0 0 42.666666 42.666667h67.669334L682.666667 145.664V213.333333z" /></svg>