<?xml version="1.0" standalone="no"?><!DOCTYPE svg PUBLIC "-//W3C//DTD SVG 1.1//EN" "http://www.w3.org/Graphics/SVG/1.1/DTD/svg11.dtd"><svg class="icon" width="200px" height="200.00px" viewBox="0 0 1024 1024" version="1.1" xmlns="http://www.w3.org/2000/svg"><path fill="#000000" d="M682.666667 42.666667a42.666667 42.666667 0 0 1 42.666666 42.666666v42.666667h85.333334a128 128 0 0 1 128 128v597.333333a128 128 0 0 1-128 128H213.333333a128 128 0 0 1-128-128V256a128 128 0 0 1 128-128h85.333334V85.333333a42.666667 42.666667 0 0 1 85.333333 0v42.666667h256V85.333333a42.666667 42.666667 0 0 1 42.666667-42.666666zM170.666667 469.333333v384a42.666667 42.666667 0 0 0 42.666666 42.666667h597.333334a42.666667 42.666667 0 0 0 42.666666-42.666667v-384H170.666667z m42.666666-256a42.666667 42.666667 0 0 0-42.666666 42.666667v128h682.666666V256a42.666667 42.666667 0 0 0-42.666666-42.666667h-85.333334v42.666667a42.666667 42.666667 0 1 1-85.333333 0V213.333333H384v42.666667a42.666667 42.666667 0 0 1-85.333333 0V213.333333H213.333333z" /></svg>