<?xml version="1.0" standalone="no"?><!DOCTYPE svg PUBLIC "-//W3C//DTD SVG 1.1//EN" "http://www.w3.org/Graphics/SVG/1.1/DTD/svg11.dtd"><svg class="icon" width="200px" height="200.00px" viewBox="0 0 1024 1024" version="1.1" xmlns="http://www.w3.org/2000/svg"><path fill="#000000" d="M512 85.333333A426.666667 426.666667 0 1 1 85.333333 512a42.666667 42.666667 0 1 1 85.333334 0 341.333333 341.333333 0 1 0 341.418666-341.333333 373.333333 373.333333 0 0 0-258.005333 104.917333L231.04 298.666667H341.333333a42.666667 42.666667 0 0 1 0 85.333333H128c-2.432 0-4.778667-0.298667-7.082667-0.682667-0.426667-0.042667-0.853333-0.085333-1.322666-0.213333l-1.450667-0.298667-2.645333-0.682666a42.282667 42.282667 0 0 1-8.746667-3.84 42.794667 42.794667 0 0 1-16.298667-16.682667l-0.853333-1.792a42.24 42.24 0 0 1-2.432-6.016A42.666667 42.666667 0 0 1 85.333333 341.333333V128a42.666667 42.666667 0 0 1 85.333334 0v110.336l23.594666-23.594667 16.768-15.488A458.666667 458.666667 0 0 1 511.829333 85.333333H512z m0 170.666667a42.666667 42.666667 0 0 1 42.666667 42.666667v186.965333l147.072 73.514667a42.666667 42.666667 0 0 1-38.144 76.373333l-170.666667-85.333333A42.666667 42.666667 0 0 1 469.333333 512V298.666667a42.666667 42.666667 0 0 1 42.666667-42.666667z"  /></svg>