<?xml version="1.0" standalone="no"?><!DOCTYPE svg PUBLIC "-//W3C//DTD SVG 1.1//EN" "http://www.w3.org/Graphics/SVG/1.1/DTD/svg11.dtd"><svg class="icon" width="200px" height="200.00px" viewBox="0 0 1024 1024" version="1.1" xmlns="http://www.w3.org/2000/svg"><path fill="#000000" d="M768 42.666667a128 128 0 0 1 128 128v682.666666a128 128 0 0 1-128 128H256a128 128 0 0 1-128-128V170.666667a128 128 0 0 1 128-128h512zM256 128a42.666667 42.666667 0 0 0-42.666667 42.666667v682.666666a42.666667 42.666667 0 0 0 42.666667 42.666667h85.333333v-128a42.666667 42.666667 0 0 1 42.666667-42.666667h256a42.666667 42.666667 0 0 1 42.666667 42.666667v128h85.333333a42.666667 42.666667 0 0 0 42.666667-42.666667V170.666667a42.666667 42.666667 0 0 0-42.666667-42.666667H256z m170.666667 768h170.666666v-85.333333h-170.666666v85.333333z m-84.906667-341.333333a42.666667 42.666667 0 1 1 0 85.333333H341.333333a42.666667 42.666667 0 1 1 0-85.333333h0.426667z m170.666667 0a42.666667 42.666667 0 1 1 0 85.333333H512a42.666667 42.666667 0 1 1 0-85.333333h0.426667z m170.666666 0a42.666667 42.666667 0 1 1 0 85.333333H682.666667a42.666667 42.666667 0 1 1 0-85.333333h0.426666z m-341.333333-170.666667a42.666667 42.666667 0 0 1 0 85.333333H341.333333a42.666667 42.666667 0 1 1 0-85.333333h0.426667z m170.666667 0a42.666667 42.666667 0 1 1 0 85.333333H512a42.666667 42.666667 0 1 1 0-85.333333h0.426667z m170.666666 0a42.666667 42.666667 0 1 1 0 85.333333H682.666667a42.666667 42.666667 0 1 1 0-85.333333h0.426666z m-341.333333-170.666667a42.666667 42.666667 0 0 1 0 85.333334H341.333333a42.666667 42.666667 0 0 1 0-85.333334h0.426667z m170.666667 0a42.666667 42.666667 0 1 1 0 85.333334H512a42.666667 42.666667 0 1 1 0-85.333334h0.426667z m170.666666 0a42.666667 42.666667 0 1 1 0 85.333334H682.666667a42.666667 42.666667 0 1 1 0-85.333334h0.426666z"  /></svg>