<?xml version="1.0" standalone="no"?><!DOCTYPE svg PUBLIC "-//W3C//DTD SVG 1.1//EN" "http://www.w3.org/Graphics/SVG/1.1/DTD/svg11.dtd"><svg class="icon" width="200px" height="200.00px" viewBox="0 0 1024 1024" version="1.1" xmlns="http://www.w3.org/2000/svg"><path fill="#000000" d="M384 95.402667a128 128 0 0 1 57.173333 13.525333l179.754667 89.856a42.666667 42.666667 0 0 0 18.688 4.48h0.725333a42.666667 42.666667 0 0 0 18.688-4.48l156.16-78.08A85.333333 85.333333 0 0 1 938.666667 197.12v544.64a85.376 85.376 0 0 1-47.189334 76.245333l-194.261333 97.152v0.042667a128 128 0 0 1-114.432 0l-179.712-89.856a42.666667 42.666667 0 0 0-38.144-0.042667l-156.074667 78.08h-0.042666a85.461333 85.461333 0 0 1-112.768-34.858666A85.376 85.376 0 0 1 85.333333 826.837333V282.410667l0.213334-5.973334a85.418667 85.418667 0 0 1 46.933333-70.357333L326.826667 108.928l6.741333-3.157333A128 128 0 0 1 384 95.402667zM170.666667 282.368v544.682667l156.16-78.08 6.698666-3.114667c2.56-1.109333 5.162667-2.133333 7.808-3.072V196.992L170.666667 282.368z m256 460.373333a128 128 0 0 1 14.506666 6.229334L597.333333 827.008V281.258667a128.256 128.256 0 0 1-14.506666-6.144L426.666667 196.992v545.706667z m270.592-467.626666h-0.042667c-4.693333 2.389333-9.6 4.394667-14.549333 6.144v545.706666l170.666666-85.333333V197.034667l-156.074666 78.08z" /></svg>