<?xml version="1.0" standalone="no"?><!DOCTYPE svg PUBLIC "-//W3C//DTD SVG 1.1//EN" "http://www.w3.org/Graphics/SVG/1.1/DTD/svg11.dtd"><svg class="icon" width="200px" height="200.00px" viewBox="0 0 1024 1024" version="1.1" xmlns="http://www.w3.org/2000/svg"><path fill="#000000" d="M793.898667 594.005333a42.666667 42.666667 0 0 1 78.848 32.682667l-2.090667 4.992c12.714667 9.6 24.021333 20.906667 33.621333 33.664l5.12-2.133333a42.666667 42.666667 0 0 1 32.64 78.890666l-5.077333 2.048a172.202667 172.202667 0 0 1 0 47.658667l5.12 2.133333a42.666667 42.666667 0 0 1-32.682667 78.805334l-5.12-2.133334a171.392 171.392 0 0 1-33.706666 33.706667l2.133333 5.12a42.666667 42.666667 0 0 1-78.848 32.554667l-2.048-5.034667a172.245333 172.245333 0 0 1-47.658667 0l-2.048 5.12a42.666667 42.666667 0 0 1-78.848-32.682667l2.090667-5.12a171.648 171.648 0 0 1-33.706667-33.664l-4.992 2.133334a42.666667 42.666667 0 0 1-32.64-78.890667l4.992-2.048a171.52 171.52 0 0 1 0-47.701333l-4.992-2.005334a42.666667 42.666667 0 0 1 32.64-78.848l5.034667 2.048a171.52 171.52 0 0 1 33.621333-33.621333l-2.048-4.992a42.666667 42.666667 0 0 1 78.848-32.682667l2.005334 4.992a172.16 172.16 0 0 1 47.744 0l2.048-4.992zM340.48 85.333333a128.042667 128.042667 0 0 1 103.168 50.986667l4.565333 6.613333 1.706667 2.858667 27.008 48.981333A42.752 42.752 0 0 0 512 213.333333h341.333333a128 128 0 0 1 128 128v140.8a42.666667 42.666667 0 1 1-85.333333 0V341.333333a42.666667 42.666667 0 0 0-42.666667-42.666666h-341.333333a128 128 0 0 1-108.629333-60.501334l-26.965334-49.066666A42.666667 42.666667 0 0 0 340.906667 170.666667H170.666667a42.666667 42.666667 0 0 0-42.666667 42.666666v554.666667a42.666667 42.666667 0 0 0 42.666667 42.666667h268.8a42.666667 42.666667 0 0 1 0 85.333333H170.666667a128 128 0 0 1-128-128V213.333333a128 128 0 0 1 128-128h169.813333v0.042667zM768 682.666667a85.333333 85.333333 0 1 0 0 170.666666 85.333333 85.333333 0 0 0 0-170.666666z" /></svg>