<?xml version="1.0" standalone="no"?><!DOCTYPE svg PUBLIC "-//W3C//DTD SVG 1.1//EN" "http://www.w3.org/Graphics/SVG/1.1/DTD/svg11.dtd"><svg class="icon" width="200px" height="200.00px" viewBox="0 0 1024 1024" version="1.1" xmlns="http://www.w3.org/2000/svg"><path fill="#000000" d="M512 42.666667c109.354667 0 210.133333 14.677333 285.013333 39.68 37.248 12.373333 70.442667 28.16 95.232 47.658666C916.565333 149.162667 938.666667 176.981333 938.666667 213.333333v597.333334c0 35.2-21.034667 62.762667-45.184 82.218666-24.533333 19.712-57.813333 35.882667-96.426667 48.768-77.568 25.856-180.053333 39.68-285.056 39.68-104.96 0-207.488-13.824-285.013333-39.68-38.656-12.885333-71.978667-29.013333-96.469334-48.768C106.368 873.386667 85.333333 845.866667 85.333333 810.666667V213.333333c0-36.352 22.144-64.170667 46.421334-83.328 24.746667-19.541333 57.984-35.242667 95.189333-47.658666C301.866667 57.344 402.645333 42.666667 512 42.666667z m341.333333 576.981333c-16.938667 8.704-35.84 16.554667-56.32 23.338667-77.525333 25.856-180.053333 39.68-285.013333 39.68s-207.488-13.824-285.013333-39.68A401.92 401.92 0 0 1 170.666667 619.648v191.104l0.085333 0.384c0.128 0.426667 0.469333 1.28 1.28 2.645333 1.706667 2.858667 5.248 7.253333 11.946667 12.629334 13.738667 11.008 36.608 23.168 69.973333 34.304C320.426667 882.901333 413.269333 896 512 896s191.573333-13.141333 258.048-35.285333c33.365333-11.093333 56.234667-23.296 69.973333-34.304 6.698667-5.418667 10.24-9.813333 11.946667-12.629334a12.416 12.416 0 0 0 1.28-2.645333l0.085333-0.384v-191.104z m0-298.624a405.845333 405.845333 0 0 1-56.32 23.296C722.176 369.322667 621.397333 384 512 384c-109.354667 0-210.133333-14.677333-285.013333-39.68A405.802667 405.802667 0 0 1 170.666667 321.024v191.061333l0.085333 0.384c0.128 0.426667 0.469333 1.28 1.28 2.645334 1.706667 2.858667 5.248 7.253333 11.946667 12.629333 13.738667 11.008 36.608 23.168 69.973333 34.304C320.426667 584.234667 413.269333 597.333333 512 597.333333s191.573333-13.141333 258.048-35.285333c33.365333-11.093333 56.234667-23.296 69.973333-34.304 6.698667-5.418667 10.24-9.813333 11.946667-12.629333a12.416 12.416 0 0 0 1.28-2.645334l0.085333-0.384V321.024zM512 128c-102.741333 0-193.962667 13.952-258.048 35.285333-32.256 10.752-55.296 22.656-69.376 33.749334a52.736 52.736 0 0 0-12.373333 12.8 13.056 13.056 0 0 0-1.408 2.816C170.666667 213.077333 170.666667 213.333333 170.666667 213.333333l0.128 0.682667a13.056 13.056 0 0 0 1.365333 2.773333c1.834667 2.986667 5.546667 7.381333 12.416 12.8 14.08 11.136 37.12 23.04 69.376 33.792C318.037333 284.714667 409.258667 298.666667 512 298.666667s193.962667-13.952 258.048-35.285334c32.256-10.752 55.296-22.656 69.376-33.749333 6.912-5.461333 10.581333-9.898667 12.373333-12.8a13.226667 13.226667 0 0 0 1.408-2.816C853.333333 213.589333 853.333333 213.333333 853.333333 213.333333l-0.128-0.682666a13.226667 13.226667 0 0 0-1.365333-2.773334 52.693333 52.693333 0 0 0-12.416-12.8c-14.08-11.136-37.12-23.04-69.376-33.792C705.962667 141.952 614.741333 128 512 128z" /></svg>