<?xml version="1.0" standalone="no"?><!DOCTYPE svg PUBLIC "-//W3C//DTD SVG 1.1//EN" "http://www.w3.org/Graphics/SVG/1.1/DTD/svg11.dtd"><svg class="icon" width="200px" height="200.00px" viewBox="0 0 1024 1024" version="1.1" xmlns="http://www.w3.org/2000/svg"><path fill="#000000" d="M810.666667 42.666667a85.333333 85.333333 0 0 1 85.333333 85.333333v768a85.333333 85.333333 0 0 1-85.333333 85.333333H277.333333A149.333333 149.333333 0 0 1 128 832v-640A149.333333 149.333333 0 0 1 277.333333 42.666667H810.666667zM277.333333 768a64 64 0 0 0 0 128H810.666667v-128H277.333333z m0-640A64 64 0 0 0 213.333333 192v505.088A149.333333 149.333333 0 0 1 277.333333 682.666667H810.666667V128h-85.333334v298.666667a42.666667 42.666667 0 0 1-72.832 30.165333L554.666667 358.997333l-97.834667 97.834667A42.666667 42.666667 0 0 1 384 426.666667V128H277.333333zM469.333333 323.669333l55.168-55.168 3.242667-2.901333a42.666667 42.666667 0 0 1 57.088 2.901333L640 323.669333V128h-170.666667v195.669333z"  /></svg>