<?xml version="1.0" standalone="no"?><!DOCTYPE svg PUBLIC "-//W3C//DTD SVG 1.1//EN" "http://www.w3.org/Graphics/SVG/1.1/DTD/svg11.dtd"><svg class="icon" width="200px" height="200.00px" viewBox="0 0 1024 1024" version="1.1" xmlns="http://www.w3.org/2000/svg"><path fill="#000000" d="M384 256a42.666667 42.666667 0 0 1 0 85.333333H298.666667a170.666667 170.666667 0 0 0 0 341.333334h85.333333a42.666667 42.666667 0 1 1 0 85.333333H298.666667A256 256 0 0 1 298.666667 256h85.333333z m341.333333 0a256 256 0 0 1 0 512h-85.333333a42.666667 42.666667 0 1 1 0-85.333333h85.333333a170.666667 170.666667 0 0 0 0-341.333334h-85.333333a42.666667 42.666667 0 1 1 0-85.333333h85.333333z m-42.666666 213.333333a42.666667 42.666667 0 1 1 0 85.333334H341.333333a42.666667 42.666667 0 1 1 0-85.333334h341.333334z" /></svg>