<?xml version="1.0" standalone="no"?><!DOCTYPE svg PUBLIC "-//W3C//DTD SVG 1.1//EN" "http://www.w3.org/Graphics/SVG/1.1/DTD/svg11.dtd"><svg class="icon" width="200px" height="200.00px" viewBox="0 0 1024 1024" version="1.1" xmlns="http://www.w3.org/2000/svg"><path fill="#000000" d="M512 85.333333a42.666667 42.666667 0 1 1 0 85.333334H213.333333a42.666667 42.666667 0 0 0-42.666666 42.666666v597.333334a42.666667 42.666667 0 0 0 42.666666 42.666666h597.333334a42.666667 42.666667 0 0 0 42.666666-42.666666v-298.666667a42.666667 42.666667 0 1 1 85.333334 0v298.666667a128 128 0 0 1-128 128H213.333333a128 128 0 0 1-128-128V213.333333a128 128 0 0 1 128-128h298.666667z m336-42.496a133.162667 133.162667 0 0 1 94.165333 227.328l-384.554666 384.64a128.085333 128.085333 0 0 1-54.613334 32.298667h0.042667l-122.581333 35.84h-0.042667a64 64 0 0 1-79.36-79.36l35.84-122.581333v-0.042667c5.333333-18.048 14.506667-34.688 26.88-48.725333l5.546667-5.802667 384.512-384.597333 4.778666-4.522667a133.12 133.12 0 0 1 89.386667-34.474667z m0 85.333334c-12.672 0-24.874667 5.034667-33.834667 13.994666l-384.554666 384.64a42.666667 42.666667 0 0 0-10.837334 18.176l-24.917333 85.12 85.248-24.874666 5.034667-1.834667c4.864-2.133333 9.386667-5.162667 13.141333-8.96l384.554667-384.597333 3.157333-3.498667a47.914667 47.914667 0 0 0-36.992-78.165333z" /></svg>