<?xml version="1.0" standalone="no"?><!DOCTYPE svg PUBLIC "-//W3C//DTD SVG 1.1//EN" "http://www.w3.org/Graphics/SVG/1.1/DTD/svg11.dtd"><svg class="icon" width="200px" height="200.00px" viewBox="0 0 1024 1024" version="1.1" xmlns="http://www.w3.org/2000/svg"><path fill="#000000" d="M548.906667 874.666667a42.666667 42.666667 0 0 1 73.941333 42.666666 128.085333 128.085333 0 0 1-221.738667 0 42.666667 42.666667 0 0 1 73.941334-42.666666 42.752 42.752 0 0 0 58.282666 15.616 42.666667 42.666667 0 0 0 15.573334-15.616zM512 42.666667a298.752 298.752 0 0 1 298.666667 298.666666c0 91.52 14.336 148.437333 33.066666 188.16 14.08 29.781333 31.488 51.712 51.285334 73.173334l20.522666 21.589333 0.896 0.981333a85.333333 85.333333 0 0 1-56.917333 142.549334l-6.186667 0.213333h-682.666666a85.461333 85.461333 0 0 1-78.08-50.901333 85.376 85.376 0 0 1 15.061333-91.946667l0.896-0.938667c28.330667-29.269333 52.906667-54.954667 71.68-94.72C198.997333 489.728 213.333333 432.810667 213.333333 341.333333a298.752 298.752 0 0 1 298.666667-298.666666z m0 85.333333a213.376 213.376 0 0 0-213.333333 213.333333c0 100.437333-15.744 170.581333-41.258667 224.597334C232.192 619.264 198.741333 653.653333 170.666667 682.666667h682.624c-28.16-29.013333-61.525333-63.445333-86.698667-116.736-25.514667-54.016-41.301333-124.16-41.301333-224.597334a213.333333 213.333333 0 0 0-213.333334-213.333333z" /></svg>