<?xml version="1.0" standalone="no"?><!DOCTYPE svg PUBLIC "-//W3C//DTD SVG 1.1//EN" "http://www.w3.org/Graphics/SVG/1.1/DTD/svg11.dtd"><svg class="icon" width="200px" height="200.00px" viewBox="0 0 1024 1024" version="1.1" xmlns="http://www.w3.org/2000/svg"><path fill="#000000" d="M512 170.709333a501.376 501.376 0 0 1 456.064 293.12l7.381333 17.066667 0.554667 1.450667a85.333333 85.333333 0 0 1 0 59.349333l-0.554667 1.450667a501.461333 501.461333 0 0 1-742.314666 225.493333 501.418667 501.418667 0 0 1-184.618667-225.536l-0.554667-1.408a85.376 85.376 0 0 1 0-59.349333l0.554667-1.450667A501.461333 501.461333 0 0 1 512 170.752z m0 85.333334A416.170667 416.170667 0 0 0 128 512a416 416 0 0 0 615.381333 185.685333A416 416 0 0 0 895.914667 512 415.957333 415.957333 0 0 0 512 256.042667zM512 341.333333a170.666667 170.666667 0 1 1 0 341.333334 170.666667 170.666667 0 0 1 0-341.333334z m0 85.333334a85.333333 85.333333 0 1 0 0 170.666666 85.333333 85.333333 0 0 0 0-170.666666z" /></svg>