<?xml version="1.0" standalone="no"?><!DOCTYPE svg PUBLIC "-//W3C//DTD SVG 1.1//EN" "http://www.w3.org/Graphics/SVG/1.1/DTD/svg11.dtd"><svg class="icon" width="200px" height="200.00px" viewBox="0 0 1024 1024" version="1.1" xmlns="http://www.w3.org/2000/svg"><path fill="#000000" d="M853.333333 85.333333a128 128 0 0 1 128 128v426.666667a128 128 0 0 1-128 128h-298.666666v85.333333h128a42.666667 42.666667 0 1 1 0 85.333334H341.333333a42.666667 42.666667 0 1 1 0-85.333334h128v-85.333333H170.666667a128 128 0 0 1-128-128V213.333333a128 128 0 0 1 128-128h682.666666zM170.666667 170.666667a42.666667 42.666667 0 0 0-42.666667 42.666666v426.666667a42.666667 42.666667 0 0 0 42.666667 42.666667h682.666666a42.666667 42.666667 0 0 0 42.666667-42.666667V213.333333a42.666667 42.666667 0 0 0-42.666667-42.666666H170.666667z m586.496 99.968a42.666667 42.666667 0 0 1 67.029333 52.608l-2.688 3.456-0.042667 0.042666-0.128 0.170667-0.512 0.554667-1.706666 1.962666-6.570667 7.381334a2117.546667 2117.546667 0 0 1-99.498667 104.064c-28.842667 27.989333-60.757333 56.746667-89.941333 77.866666a259.413333 259.413333 0 0 1-44.458667 26.794667c-13.312 5.973333-33.450667 12.8-54.613333 8.106667-21.418667-4.821333-40.362667-14.72-56.234667-24.618667-15.573333-9.685333-31.36-21.504-44.074666-30.634667-29.525333-21.162667-46.208-29.525333-59.690667-29.098666-1.109333 0-7.552 1.365333-19.712 11.264a230.229333 230.229333 0 0 0-34.389333 36.906666 475.136 475.136 0 0 0-35.2 52.992l-1.962667 3.498667c-0.213333 0.384-0.426667 0.64-0.469333 0.810667l-0.085334 0.170666-2.261333 3.754667a42.666667 42.666667 0 0 1-72.832-44.288l0.042667-0.085333 0.042666-0.085334 0.213334-0.426666 0.725333-1.28a428.202667 428.202667 0 0 1 11.776-19.968c7.808-12.672 19.029333-29.824 32.426667-47.232 13.269333-17.152 29.696-35.925333 48.042666-50.901334 17.493333-14.293333 41.984-29.44 70.912-30.378666 46.549333-1.493333 85.930667 26.24 112.085334 44.970666 15.061333 10.794667 27.050667 19.797333 39.594666 27.605334 10.410667 6.528 18.944 10.538667 26.154667 12.714666 1.024-0.341333 2.56-0.768 4.565333-1.706666 7.253333-3.2 17.109333-9.088 29.354667-17.92 24.277333-17.621333 52.736-43.093333 80.554667-70.101334a1947.392 1947.392 0 0 0 95.317333-99.626666c2.688-2.986667 4.736-5.376 6.144-6.997334 0.725333-0.768 1.28-1.365333 1.578667-1.792l0.426666-0.426666 0.085334-0.085334v-0.042666z" /></svg>