<?xml version="1.0" standalone="no"?><!DOCTYPE svg PUBLIC "-//W3C//DTD SVG 1.1//EN" "http://www.w3.org/Graphics/SVG/1.1/DTD/svg11.dtd"><svg class="icon" width="200px" height="200.00px" viewBox="0 0 1024 1024" version="1.1" xmlns="http://www.w3.org/2000/svg"><path fill="#000000" d="M256 554.666667a42.666667 42.666667 0 1 1 0 85.333333H213.333333v256a42.666667 42.666667 0 1 1-85.333333 0v-256H85.333333a42.666667 42.666667 0 1 1 0-85.333333h170.666667z m256-85.333334a42.666667 42.666667 0 0 1 42.666667 42.666667v384a42.666667 42.666667 0 1 1-85.333334 0v-384a42.666667 42.666667 0 0 1 42.666667-42.666667z m426.666667 170.666667a42.666667 42.666667 0 1 1 0 85.333333h-42.666667v170.666667a42.666667 42.666667 0 1 1-85.333333 0v-170.666667h-42.666667a42.666667 42.666667 0 1 1 0-85.333333h170.666667zM853.333333 85.333333a42.666667 42.666667 0 0 1 42.666667 42.666667v384a42.666667 42.666667 0 1 1-85.333333 0V128a42.666667 42.666667 0 0 1 42.666666-42.666667zM170.666667 85.333333a42.666667 42.666667 0 0 1 42.666666 42.666667v298.666667a42.666667 42.666667 0 1 1-85.333333 0V128a42.666667 42.666667 0 0 1 42.666667-42.666667z m341.333333 0a42.666667 42.666667 0 0 1 42.666667 42.666667v170.666667h42.666666a42.666667 42.666667 0 1 1 0 85.333333h-170.666666a42.666667 42.666667 0 0 1 0-85.333333h42.666666V128a42.666667 42.666667 0 0 1 42.666667-42.666667z" /></svg>