<?xml version="1.0" standalone="no"?><!DOCTYPE svg PUBLIC "-//W3C//DTD SVG 1.1//EN" "http://www.w3.org/Graphics/SVG/1.1/DTD/svg11.dtd"><svg class="icon" width="200px" height="200.00px" viewBox="0 0 1024 1024" version="1.1" xmlns="http://www.w3.org/2000/svg"><path fill="#000000" d="M682.666667 42.666667a42.666667 42.666667 0 0 1 42.666666 42.666666v42.666667h85.333334a128 128 0 0 1 128 128v64a42.666667 42.666667 0 1 1-85.333334 0V256a42.666667 42.666667 0 0 0-42.666666-42.666667h-85.333334v42.666667a42.666667 42.666667 0 1 1-85.333333 0V213.333333H384v42.666667a42.666667 42.666667 0 0 1-85.333333 0V213.333333H213.333333a42.666667 42.666667 0 0 0-42.666666 42.666667v128h170.666666a42.666667 42.666667 0 0 1 0 85.333333H170.666667v384a42.666667 42.666667 0 0 0 42.666666 42.666667h149.333334a42.666667 42.666667 0 1 1 0 85.333333H213.333333a128 128 0 0 1-128-128V256a128 128 0 0 1 128-128h85.333334V85.333333a42.666667 42.666667 0 0 1 85.333333 0v42.666667h256V85.333333a42.666667 42.666667 0 0 1 42.666667-42.666666z m0 341.333333a298.666667 298.666667 0 1 1 0 597.333333 298.666667 298.666667 0 0 1 0-597.333333z m0 85.333333a213.333333 213.333333 0 1 0 0 426.666667 213.333333 213.333333 0 0 0 0-426.666667z m0 85.333334a42.666667 42.666667 0 0 1 42.666666 42.666666v70.186667l48.213334 30.165333a42.709333 42.709333 0 0 1-45.226667 72.362667l-68.266667-42.666667A42.666667 42.666667 0 0 1 640 691.2V597.333333a42.666667 42.666667 0 0 1 42.666667-42.666666z" /></svg>