<?xml version="1.0" standalone="no"?><!DOCTYPE svg PUBLIC "-//W3C//DTD SVG 1.1//EN" "http://www.w3.org/Graphics/SVG/1.1/DTD/svg11.dtd"><svg class="icon" width="200px" height="200.00px" viewBox="0 0 1024 1024" version="1.1" xmlns="http://www.w3.org/2000/svg"><path fill="#000000" d="M512 42.666667a384 384 0 0 1 384 384c0 120.917333-66.261333 239.061333-136.789333 331.733333-71.552 93.994667-152.917333 168.789333-193.706667 203.946667a85.333333 85.333333 0 0 1-107.093333 0c-40.704-35.157333-122.112-109.952-193.621334-203.946667C194.261333 665.728 128 547.584 128 426.666667a384 384 0 0 1 384-384z m0 85.333333a298.666667 298.666667 0 0 0-298.666667 298.666667c0 92.16 51.925333 191.445333 119.381334 280.064 65.194667 85.674667 139.989333 154.965333 179.285333 189.056 39.253333-34.090667 114.090667-103.381333 179.285333-189.013334C758.741333 618.069333 810.666667 518.784 810.666667 426.666667a298.666667 298.666667 0 0 0-298.666667-298.666667z m0 128a170.666667 170.666667 0 1 1 0 341.333333 170.666667 170.666667 0 0 1 0-341.333333z m0 85.333333a85.333333 85.333333 0 1 0 0 170.666667 85.333333 85.333333 0 0 0 0-170.666667z" /></svg>