<?xml version="1.0" standalone="no"?><!DOCTYPE svg PUBLIC "-//W3C//DTD SVG 1.1//EN" "http://www.w3.org/Graphics/SVG/1.1/DTD/svg11.dtd"><svg class="icon" width="200px" height="200.00px" viewBox="0 0 1024 1024" version="1.1" xmlns="http://www.w3.org/2000/svg"><path fill="#000000" d="M512 42.752a128 128 0 0 1 63.786667 17.066667h0.042666l298.666667 170.666666 0.170667 0.085334A128.085333 128.085333 0 0 1 938.666667 341.333333v341.418667a128 128 0 0 1-64 110.72l-0.170667 0.128-298.666667 170.666667v-0.042667a128 128 0 0 1-59.264 16.896 42.794667 42.794667 0 0 1-9.002666 0 127.957333 127.957333 0 0 1-59.392-16.896l-298.666667-170.666667-0.170667-0.085333A128.042667 128.042667 0 0 1 85.333333 682.666667V341.290667l0.298667-8.405334A128 128 0 0 1 149.333333 230.570667l0.170667-0.128 298.666667-170.666667v0.042667a128 128 0 0 1 63.829333-17.066667zM170.666667 682.624l0.384 5.546667a42.666667 42.666667 0 0 0 20.778666 31.232L469.333333 877.952v-341.290667L170.666667 365.269333v317.354667z m556.928-245.248a42.666667 42.666667 0 0 1-5.290667 3.029333L554.666667 536.661333v341.333334l277.504-158.592A42.666667 42.666667 0 0 0 853.333333 682.666667V365.226667l-125.738666 72.149333zM214.058667 291.754667L512 462.805333l105.984-60.928-298.154667-170.581333-105.813333 60.458667zM512 128.085333a42.666667 42.666667 0 0 0-21.333333 5.717334l-0.170667 0.085333L405.888 182.186667l297.898667 170.453333 106.069333-60.885333-276.352-157.866667-0.170667-0.085333a42.666667 42.666667 0 0 0-21.333333-5.717334z" /></svg>