<?xml version="1.0" standalone="no"?><!DOCTYPE svg PUBLIC "-//W3C//DTD SVG 1.1//EN" "http://www.w3.org/Graphics/SVG/1.1/DTD/svg11.dtd"><svg class="icon" width="200px" height="200.00px" viewBox="0 0 1024 1024" version="1.1" xmlns="http://www.w3.org/2000/svg"><path fill="#000000" d="M640 42.666667a42.666667 42.666667 0 0 1 30.165333 12.501333l213.333334 213.333333A42.666667 42.666667 0 0 1 896 298.666667v554.666666a128 128 0 0 1-128 128H256a128 128 0 0 1-128-128V170.666667a128 128 0 0 1 128-128h384zM256 128a42.666667 42.666667 0 0 0-42.666667 42.666667v682.666666a42.666667 42.666667 0 0 0 42.666667 42.666667h512a42.666667 42.666667 0 0 0 42.666667-42.666667V384h-128a128 128 0 0 1-128-128V128H256z m426.666667 554.666667a42.666667 42.666667 0 1 1 0 85.333333H341.333333a42.666667 42.666667 0 1 1 0-85.333333h341.333334z m0-170.666667a42.666667 42.666667 0 1 1 0 85.333333H341.333333a42.666667 42.666667 0 1 1 0-85.333333h341.333334z m-256-170.666667a42.666667 42.666667 0 1 1 0 85.333334H341.333333a42.666667 42.666667 0 0 1 0-85.333334h85.333334z m213.333333-85.333333a42.666667 42.666667 0 0 0 42.666667 42.666667h110.336L640 145.664V256z" /></svg>