<?xml version="1.0" standalone="no"?><!DOCTYPE svg PUBLIC "-//W3C//DTD SVG 1.1//EN" "http://www.w3.org/Graphics/SVG/1.1/DTD/svg11.dtd"><svg class="icon" width="200px" height="200.00px" viewBox="0 0 1024 1024" version="1.1" xmlns="http://www.w3.org/2000/svg"><path fill="#000000" d="M640 42.666667a85.333333 85.333333 0 0 1 85.333333 85.333333h42.666667a128 128 0 0 1 128 128v597.333333a128 128 0 0 1-128 128H256a128 128 0 0 1-128-128V256a128 128 0 0 1 128-128h42.666667a85.333333 85.333333 0 0 1 85.333333-85.333333h256zM256 213.333333a42.666667 42.666667 0 0 0-42.666667 42.666667v597.333333a42.666667 42.666667 0 0 0 42.666667 42.666667h512a42.666667 42.666667 0 0 0 42.666667-42.666667V256a42.666667 42.666667 0 0 0-42.666667-42.666667h-42.666667a85.333333 85.333333 0 0 1-85.333333 85.333334H384a85.333333 85.333333 0 0 1-85.333333-85.333334H256z m353.834667 268.501334a42.666667 42.666667 0 1 1 60.330666 60.330666l-170.666666 170.666667a42.666667 42.666667 0 0 1-60.330667 0l-85.333333-85.333333a42.666667 42.666667 0 1 1 60.330666-60.330667L469.333333 622.336l140.501334-140.501333zM384 213.333333h256V128H384v85.333333z" /></svg>