<?xml version="1.0" standalone="no"?><!DOCTYPE svg PUBLIC "-//W3C//DTD SVG 1.1//EN" "http://www.w3.org/Graphics/SVG/1.1/DTD/svg11.dtd"><svg class="icon" width="200px" height="200.00px" viewBox="0 0 1024 1024" version="1.1" xmlns="http://www.w3.org/2000/svg"><path fill="#000000" d="M682.666667 42.666667a128 128 0 0 1 128 128v170.666666h42.666666a128 128 0 0 1 128 128v384a128 128 0 0 1-128 128H170.666667a128 128 0 0 1-128-128v-256a128 128 0 0 1 128-128h42.666666V170.666667a128 128 0 0 1 128-128h341.333334zM170.666667 554.666667a42.666667 42.666667 0 0 0-42.666667 42.666666v256l0.213333 4.224A42.666667 42.666667 0 0 0 170.666667 896h42.666666v-341.333333H170.666667zM341.333333 128a42.666667 42.666667 0 0 0-42.666666 42.666667v725.333333h426.666666V170.666667a42.666667 42.666667 0 0 0-42.666666-42.666667H341.333333z m469.333334 768h42.666666a42.666667 42.666667 0 0 0 42.666667-42.666667v-384a42.666667 42.666667 0 0 0-42.666667-42.666666h-42.666666v469.333333z m-213.333334-170.666667a42.666667 42.666667 0 1 1 0 85.333334h-170.666666a42.666667 42.666667 0 1 1 0-85.333334h170.666666z m0-170.666666a42.666667 42.666667 0 1 1 0 85.333333h-170.666666a42.666667 42.666667 0 1 1 0-85.333333h170.666666z m0-170.666667a42.666667 42.666667 0 1 1 0 85.333333h-170.666666a42.666667 42.666667 0 1 1 0-85.333333h170.666666z m0-170.666667a42.666667 42.666667 0 1 1 0 85.333334h-170.666666a42.666667 42.666667 0 0 1 0-85.333334h170.666666z"  /></svg>