<?xml version="1.0" standalone="no"?><!DOCTYPE svg PUBLIC "-//W3C//DTD SVG 1.1//EN" "http://www.w3.org/Graphics/SVG/1.1/DTD/svg11.dtd"><svg class="icon" width="200px" height="200.00px" viewBox="0 0 1024 1024" version="1.1" xmlns="http://www.w3.org/2000/svg"><path fill="#000000" d="M927.018667 43.264l4.437333 0.853333 4.394667 1.109334c8.661333 2.56 16.725333 7.04 23.552 12.970666l3.328 3.072 3.072 3.285334c5.973333 6.826667 10.325333 14.890667 12.928 23.552l1.152 4.394666 0.853333 4.48c1.493333 10.197333 0.469333 20.608-2.944 30.378667h0.085333l-277.333333 810.666667v0.085333a64 64 0 0 1-119.978667 2.986667l-135.68-338.346667-1.792-3.925333a42.88 42.88 0 0 0-21.888-19.754667l-338.389333-135.68a64.042667 64.042667 0 0 1-27.733333-97.28l2.986666-3.84c7.381333-8.576 17.024-15.104 27.818667-18.773333V323.413333l810.666667-277.333333v0.042667c9.813333-3.413333 20.266667-4.394667 30.464-2.858667z m-406.229334 520.234667c1.152 2.432 2.261333 4.864 3.285334 7.381333v0.085333l114.261333 285.013334L851.626667 232.746667l-330.794667 330.794666z m-352.853333-177.92l284.928 114.261333c2.56 1.024 5.077333 2.133333 7.509333 3.328l331.008-330.922667-623.488 213.333334z" /></svg>