<?xml version="1.0" standalone="no"?><!DOCTYPE svg PUBLIC "-//W3C//DTD SVG 1.1//EN" "http://www.w3.org/Graphics/SVG/1.1/DTD/svg11.dtd"><svg class="icon" width="200px" height="200.00px" viewBox="0 0 1024 1024" version="1.1" xmlns="http://www.w3.org/2000/svg"><path fill="#000000" d="M512 42.666667a92.586667 92.586667 0 0 1 60.16 22.186666l0.341333 0.298667C642.474667 126.336 739.114667 170.666667 810.666667 170.666667a85.333333 85.333333 0 0 1 85.333333 85.333333v298.666667c0 117.930667-41.813333 208.64-108.970667 277.546666-66.005333 67.712-154.709333 112.64-246.485333 144.64l-0.341333 0.128a85.333333 85.333333 0 0 1-56.192-0.554666l-0.768-0.256-0.213334-0.042667v-0.042667c-91.690667-31.744-180.096-76.458667-245.973333-143.914666-63.061333-64.597333-103.68-148.309333-108.544-255.658667L128 554.666667V256a85.418667 85.418667 0 0 1 85.333333-85.333333l13.696-0.512c69.845333-5.12 159.274667-48.042667 224.469334-104.96l0.384-0.298667A92.586667 92.586667 0 0 1 512 42.666667z m0 85.333333a7.253333 7.253333 0 0 0-4.693333 1.749333l-0.042667-0.042666C428.330667 198.485333 312.32 256 213.333333 256v298.666667l0.384 17.578666c3.797333 86.4 35.754667 150.485333 84.352 200.277334 53.034667 54.314667 127.914667 93.610667 213.76 123.306666l0.981334 0.256c85.546667-29.866667 160.170667-69.12 213.12-123.477333C777.770667 719.445333 810.666667 650.069333 810.666667 554.666667V256c-98.986667 0-214.613333-57.045333-293.973334-126.293333A7.253333 7.253333 0 0 0 512 128z"  /></svg>