<?xml version="1.0" standalone="no"?><!DOCTYPE svg PUBLIC "-//W3C//DTD SVG 1.1//EN" "http://www.w3.org/Graphics/SVG/1.1/DTD/svg11.dtd"><svg class="icon" width="200px" height="200.00px" viewBox="0 0 1024 1024" version="1.1" xmlns="http://www.w3.org/2000/svg"><path fill="#000000" d="M128 85.333333a42.666667 42.666667 0 0 1 42.666667 42.666667v682.666667a42.666667 42.666667 0 0 0 42.666666 42.666666h682.666667a42.666667 42.666667 0 1 1 0 85.333334H213.333333a128 128 0 0 1-128-128V128a42.666667 42.666667 0 0 1 42.666667-42.666667z m213.333333 469.333334a42.666667 42.666667 0 0 1 42.666667 42.666666v128a42.666667 42.666667 0 1 1-85.333333 0v-128a42.666667 42.666667 0 0 1 42.666666-42.666666z m213.333334-384a42.666667 42.666667 0 0 1 42.666666 42.666666v512a42.666667 42.666667 0 1 1-85.333333 0V213.333333a42.666667 42.666667 0 0 1 42.666667-42.666666z m213.333333 170.666666a42.666667 42.666667 0 0 1 42.666667 42.666667v341.333333a42.666667 42.666667 0 1 1-85.333334 0V384a42.666667 42.666667 0 0 1 42.666667-42.666667z" /></svg>