<?xml version="1.0" standalone="no"?><!DOCTYPE svg PUBLIC "-//W3C//DTD SVG 1.1//EN" "http://www.w3.org/Graphics/SVG/1.1/DTD/svg11.dtd"><svg class="icon" width="200px" height="200.00px" viewBox="0 0 1024 1024" version="1.1" xmlns="http://www.w3.org/2000/svg"><path fill="#000000" d="M488.405333 92.458667a42.666667 42.666667 0 0 1 65.450667 27.136c19.242667 96.426667 77.653333 190.122667 155.477333 252.416 93.013333 74.368 144 166.826667 144 267.946666a341.418667 341.418667 0 0 1-582.698666 241.408A341.333333 341.333333 0 0 1 170.666667 640c0-58.624 21.632-116.778667 52.053333-154.709333A42.666667 42.666667 0 0 1 298.666667 512a64 64 0 0 0 128 0c0-34.56-7.978667-51.584-22.101334-78.122667l-16.085333-30.805333c-27.733333-55.466667-31.402667-110.848-12.032-164.693333 18.688-51.882667 57.472-98.773333 107.477333-142.506667l4.48-3.413333z m2.816 117.333333c-16.554667 20.181333-27.904 39.253333-34.474666 57.472-10.965333 30.506667-9.898667 61.696 8.106666 97.621333l15.232 28.672c15.872 29.866667 31.914667 64.682667 31.914667 118.442667a149.333333 149.333333 0 0 1-254.378667 106.069333c-0.981333 7.253333-1.621333 14.549333-1.621333 21.930667a256 256 0 0 0 512 0c0-69.546667-34.346667-139.221333-112-201.344a536.234667 536.234667 0 0 1-164.778667-228.864z" /></svg>