<?xml version="1.0" standalone="no"?><!DOCTYPE svg PUBLIC "-//W3C//DTD SVG 1.1//EN" "http://www.w3.org/Graphics/SVG/1.1/DTD/svg11.dtd"><svg class="icon" width="200px" height="200.00px" viewBox="0 0 1024 1024" version="1.1" xmlns="http://www.w3.org/2000/svg"><path fill="#000000" d="M597.333333 213.333333a128 128 0 0 1 128 128v32.384l159.744-93.226666 7.509334-3.754667c7.722667-3.242667 16.085333-4.906667 24.533333-4.949333l8.362667 0.554666c5.546667 0.725333 11.008 2.133333 16.213333 4.266667l7.509333 3.669333 6.997334 4.693334A64.042667 64.042667 0 0 1 981.333333 335.786667v349.696l-0.597333 8.661333a64.085333 64.085333 0 0 1-66.432 55.296 64.170667 64.170667 0 0 1-32.426667-10.666667h-0.042666L725.333333 634.325333V682.666667a128 128 0 0 1-128 128H170.666667a128 128 0 0 1-128-128V341.333333a128 128 0 0 1 128-128h426.666666zM170.666667 298.666667a42.666667 42.666667 0 0 0-42.666667 42.666666v341.333334a42.666667 42.666667 0 0 0 42.666667 42.666666h426.666666a42.666667 42.666667 0 0 0 42.666667-42.666666V341.333333a42.666667 42.666667 0 0 0-42.666667-42.666666H170.666667z m554.666666 173.824v59.306666l170.666667 113.834667V372.906667l-170.666667 99.584z" /></svg>