<?xml version="1.0" standalone="no"?><!DOCTYPE svg PUBLIC "-//W3C//DTD SVG 1.1//EN" "http://www.w3.org/Graphics/SVG/1.1/DTD/svg11.dtd"><svg class="icon" width="200px" height="200.00px" viewBox="0 0 1024 1024" version="1.1" xmlns="http://www.w3.org/2000/svg"><path fill="#000000" d="M640 42.666667a42.666667 42.666667 0 0 1 30.165333 12.501333l213.333334 213.333333A42.666667 42.666667 0 0 1 896 298.666667v554.666666a128 128 0 0 1-128 128H256a128 128 0 0 1-128-128V170.666667a128 128 0 0 1 128-128h384zM256 128a42.666667 42.666667 0 0 0-42.666667 42.666667v682.666666a42.666667 42.666667 0 0 0 42.666667 42.666667h512a42.666667 42.666667 0 0 0 42.666667-42.666667V316.330667L622.336 128H256z m256.426667 554.666667a42.666667 42.666667 0 1 1 0 85.333333H512a42.666667 42.666667 0 1 1 0-85.333333h0.426667zM512 341.333333a42.666667 42.666667 0 0 1 42.666667 42.666667v170.666667a42.666667 42.666667 0 1 1-85.333334 0V384a42.666667 42.666667 0 0 1 42.666667-42.666667z" /></svg>