<?xml version="1.0" standalone="no"?><!DOCTYPE svg PUBLIC "-//W3C//DTD SVG 1.1//EN" "http://www.w3.org/Graphics/SVG/1.1/DTD/svg11.dtd"><svg class="icon" width="200px" height="200.00px" viewBox="0 0 1024 1024" version="1.1" xmlns="http://www.w3.org/2000/svg"><path fill="#000000" d="M597.674667 42.624a85.333333 85.333333 0 0 1 85.333333 85.333333v170.666667a85.333333 85.333333 0 0 1-85.333333 85.333333h-42.666667v85.333334h213.333333a85.333333 85.333333 0 0 1 85.333334 85.333333v85.333333h42.666666a85.333333 85.333333 0 0 1 85.333334 85.333334v170.666666a85.333333 85.333333 0 0 1-85.333334 85.333334h-170.666666a85.333333 85.333333 0 0 1-85.333334-85.333334v-170.666666a85.333333 85.333333 0 0 1 85.333334-85.333334h42.666666v-85.333333h-512v85.333333h42.666667a85.333333 85.333333 0 0 1 85.333333 85.333334v170.666666a85.333333 85.333333 0 0 1-85.333333 85.333334h-170.666667a85.333333 85.333333 0 0 1-85.333333-85.333334v-170.666666a85.333333 85.333333 0 0 1 85.333333-85.333334h42.666667v-85.333333a85.333333 85.333333 0 0 1 85.333333-85.333333h213.333334v-85.333334h-42.666667a85.333333 85.333333 0 0 1-85.333333-85.333333v-170.666667a85.333333 85.333333 0 0 1 85.333333-85.333333h170.666667z m-469.333334 853.333333h170.666667v-170.666666h-170.666667v170.666666z m597.333334 0h170.666666v-170.666666h-170.666666v170.666666z m-298.666667-597.333333h170.666667v-170.666667h-170.666667v170.666667z"  /></svg>