<?xml version="1.0" standalone="no"?><!DOCTYPE svg PUBLIC "-//W3C//DTD SVG 1.1//EN" "http://www.w3.org/Graphics/SVG/1.1/DTD/svg11.dtd"><svg class="icon" width="200px" height="200.00px" viewBox="0 0 1024 1024" version="1.1" xmlns="http://www.w3.org/2000/svg"><path fill="#000000" d="M725.333333 85.333333a128 128 0 0 1 128 128v469.333334h42.666667a85.333333 85.333333 0 0 1 85.333333 85.333333v42.666667a128 128 0 0 1-128 128H341.333333a128 128 0 0 1-128-128V384H128a85.333333 85.333333 0 0 1-85.333333-85.333333V213.333333a128 128 0 0 1 128-128h554.666666zM291.157333 170.666667c4.821333 13.610667 7.509333 27.989333 7.509334 42.666666v597.333334a42.666667 42.666667 0 0 0 85.333333 0v-42.666667a85.333333 85.333333 0 0 1 85.333333-85.333333h298.666667V213.333333a42.666667 42.666667 0 0 0-42.666667-42.666666H291.157333zM469.333333 810.666667c0 14.677333-2.688 29.056-7.509333 42.666666H853.333333a42.666667 42.666667 0 0 0 42.666667-42.666666v-42.666667H469.333333v42.666667z m170.666667-341.333334a42.666667 42.666667 0 1 1 0 85.333334h-213.333333a42.666667 42.666667 0 1 1 0-85.333334h213.333333z m0-170.666666a42.666667 42.666667 0 1 1 0 85.333333h-213.333333a42.666667 42.666667 0 0 1 0-85.333333h213.333333zM170.666667 170.666667a42.666667 42.666667 0 0 0-42.666667 42.666666v85.333334h85.333333V213.333333a42.666667 42.666667 0 0 0-42.666666-42.666666z" /></svg>