<?xml version="1.0" standalone="no"?><!DOCTYPE svg PUBLIC "-//W3C//DTD SVG 1.1//EN" "http://www.w3.org/Graphics/SVG/1.1/DTD/svg11.dtd"><svg class="icon" width="200px" height="200.00px" viewBox="0 0 1024 1024" version="1.1" xmlns="http://www.w3.org/2000/svg"><path fill="#000000" d="M512 42.666667c123.093333 0 241.962667 43.946667 330.24 123.434666C930.688 245.674667 981.333333 354.645333 981.333333 469.333333a256 256 0 0 1-256 256h-96a32.042667 32.042667 0 0 0-25.6 51.2l12.8 17.066667a117.418667 117.418667 0 0 1-32.213333 170.197333A117.333333 117.333333 0 0 1 522.666667 981.333333H512a469.333333 469.333333 0 1 1 0-938.666666z m0 85.333333a384 384 0 1 0 0 768h10.666667a32.042667 32.042667 0 0 0 25.6-51.2l-12.8-17.066667a117.418667 117.418667 0 0 1 32.213333-170.197333A117.333333 117.333333 0 0 1 629.333333 640H725.333333l8.448-0.213333A170.666667 170.666667 0 0 0 896 469.333333c0-89.002667-39.253333-175.36-110.848-239.829333C713.429333 164.906667 615.253333 128 512 128z m-234.666667 341.333333a64 64 0 1 1 0 128 64 64 0 0 1 0-128z m469.333334-85.333333a64 64 0 1 1 0 128 64 64 0 0 1 0-128z m-384-128a64 64 0 1 1 0 128 64 64 0 0 1 0-128z m213.333333-42.666667a64 64 0 1 1 0 128 64 64 0 0 1 0-128z"  /></svg>