<?xml version="1.0" standalone="no"?><!DOCTYPE svg PUBLIC "-//W3C//DTD SVG 1.1//EN" "http://www.w3.org/Graphics/SVG/1.1/DTD/svg11.dtd"><svg class="icon" width="200px" height="200.00px" viewBox="0 0 1024 1024" version="1.1" xmlns="http://www.w3.org/2000/svg"><path fill="#000000" d="M845.653333 85.674667A85.333333 85.333333 0 0 1 938.666667 170.666667v512a85.418667 85.418667 0 0 1-93.013334 85.034666 85.461333 85.461333 0 0 1-44.373333-17.450666A512 512 0 0 0 472.405333 640a298.794667 298.794667 0 0 0 56.618667 136.618667 128 128 0 0 1-204.8 153.6A554.666667 554.666667 0 0 1 215.04 640H213.333333a128 128 0 0 1-128-128V341.333333a128 128 0 0 1 128-128h257.066667a512.085333 512.085333 0 0 0 330.837333-110.293333l0.853334-0.64c12.714667-9.514667 27.776-15.36 43.562666-16.768zM300.714667 640A469.333333 469.333333 0 0 0 392.533333 878.933333a42.709333 42.709333 0 0 0 76.373334-19.541333 42.666667 42.666667 0 0 0-8.106667-31.616A384 384 0 0 1 386.474667 640h-85.76zM853.333333 170.666667a597.333333 597.333333 0 0 1-358.954666 128.085333L468.266667 298.666667H384v256h84.266667A597.333333 597.333333 0 0 1 853.333333 682.666667V170.666667zM213.333333 298.666667a42.666667 42.666667 0 0 0-42.666666 42.666666v170.666667a42.666667 42.666667 0 0 0 42.666666 42.666667h85.333334V298.666667H213.333333z"  /></svg>