<?xml version="1.0" standalone="no"?><!DOCTYPE svg PUBLIC "-//W3C//DTD SVG 1.1//EN" "http://www.w3.org/Graphics/SVG/1.1/DTD/svg11.dtd"><svg class="icon" width="200px" height="200.00px" viewBox="0 0 1024 1024" version="1.1" xmlns="http://www.w3.org/2000/svg"><path fill="#000000" d="M521.386667 42.666667a128.085333 128.085333 0 0 1 128 128v7.637333a42.752 42.752 0 0 0 16.682666 33.834667l4.778667 3.157333 18.176 10.581333a42.837333 42.837333 0 0 0 42.709333 0l1.28-0.725333 6.4-3.413333v0.042666a128 128 0 0 1 173.482667 47.36l9.386667 16.256v0.042667a128 128 0 0 1-46.208 174.336l0.042666 0.042667-6.4 3.84-0.597333 0.384a42.752 42.752 0 0 0-21.333333 37.12v21.674666a42.709333 42.709333 0 0 0 21.034666 36.906667l5.418667 2.944 1.365333 0.725333a128 128 0 0 1 46.848 174.293334l0.042667 0.042666-9.386667 16.64-0.256 0.426667a128 128 0 0 1-173.482666 47.36v0.085333l-6.4-3.413333-1.237334-0.725333a42.666667 42.666667 0 0 0-42.666666 0l-18.218667 10.581333-4.778667 3.157333a42.709333 42.709333 0 0 0-16.682666 33.834667V853.333333a128 128 0 0 1-128 128h-18.773334a128.085333 128.085333 0 0 1-128-128v-7.637333l-0.384-5.546667a42.752 42.752 0 0 0-16.298666-28.288l-4.778667-3.157333-18.218667-10.624a42.752 42.752 0 0 0-42.666666 0.042667l-1.28 0.725333-6.4 3.413333V802.133333a127.914667 127.914667 0 0 1-173.482667-47.36l-9.386667-16.213333v-0.042667a128 128 0 0 1 46.165334-174.378666l6.4-3.84 0.597333-0.384a42.752 42.752 0 0 0 21.333333-37.12v-21.674667l-0.384-5.546667a42.794667 42.794667 0 0 0-20.949333-31.146666 42.24 42.24 0 0 1-2.346667-1.450667l-6.4-4.266667v-0.042666a128 128 0 0 1-44.416-173.226667v-0.128l9.386667-16.213333a128.042667 128.042667 0 0 1 173.482667-47.36l6.4 3.413333 1.28 0.682667a42.752 42.752 0 0 0 42.666666 0l18.218667-10.581334 4.778667-3.157333a42.666667 42.666667 0 0 0 16.682666-33.792V170.666667a128 128 0 0 1 128-128h18.773334z m-18.773334 85.333333a42.666667 42.666667 0 0 0-42.666666 42.666667v7.68a128.213333 128.213333 0 0 1-64 110.762666l-18.218667 10.581334-0.128 0.085333a128.085333 128.085333 0 0 1-128 0l-5.12-2.730667-1.28-0.682666a42.666667 42.666667 0 0 0-58.24 15.616l-9.386667 16.213333A42.666667 42.666667 0 0 0 187.648 384l3.541333 2.304 2.304 1.408 6.4 4.266667h-0.042666a127.957333 127.957333 0 0 1 61.696 108.629333v21.845333l-0.256 8.405334a128 128 0 0 1-63.146667 102.570666l-6.4 3.84-0.554667 0.341334a42.709333 42.709333 0 0 0-15.616 58.197333l9.344 16.213333h0.042667a42.666667 42.666667 0 0 0 58.24 15.573334l1.28-0.682667 5.12-2.730667a128.085333 128.085333 0 0 1 128 0l0.128 0.085334 18.176 10.581333a128.170667 128.170667 0 0 1 64.042667 110.72V853.333333a42.666667 42.666667 0 0 0 42.666666 42.666667h18.773334a42.666667 42.666667 0 0 0 42.666666-42.666667v-7.68a128.213333 128.213333 0 0 1 64-110.762666l18.261334-10.581334 0.085333-0.085333a128.085333 128.085333 0 0 1 128 0l5.12 2.730667 1.28 0.682666a42.666667 42.666667 0 0 0 58.24-15.573333l9.130667-16.213333 0.213333-0.341334 1.92-3.84a42.666667 42.666667 0 0 0-17.493333-54.4v-0.042666l-5.12-2.688-1.237334-0.682667a128.085333 128.085333 0 0 1-64-111.36v-21.162667a128 128 0 0 1 63.36-110.848l6.4-3.84 0.597334-0.298666a42.666667 42.666667 0 0 0 15.616-58.197334l-9.386667-16.213333a42.666667 42.666667 0 0 0-58.24-15.573333l-1.28 0.682666-5.12 2.688a128 128 0 0 1-128 0.042667l-0.085333-0.085333-18.261334-10.624a128 128 0 0 1-64-110.677334V170.666667a42.666667 42.666667 0 0 0-42.666666-42.666667h-18.773334zM512 341.333333a170.666667 170.666667 0 1 1 0 341.333334 170.666667 170.666667 0 0 1 0-341.333334z m0 85.333334a85.333333 85.333333 0 1 0 0 170.666666 85.333333 85.333333 0 0 0 0-170.666666z" /></svg>