<?xml version="1.0" standalone="no"?><!DOCTYPE svg PUBLIC "-//W3C//DTD SVG 1.1//EN" "http://www.w3.org/Graphics/SVG/1.1/DTD/svg11.dtd"><svg class="icon" width="200px" height="200.00px" viewBox="0 0 1024 1024" version="1.1" xmlns="http://www.w3.org/2000/svg"><path fill="#000000" d="M512 42.666667c26.453333 0 52.181333 8.234667 73.685333 23.381333l8.96 6.912 0.170667 0.170667 298.453333 255.786666 5.248 4.608A128.170667 128.170667 0 0 1 938.666667 426.666667v384a128.128 128.128 0 0 1-128 128H213.333333a128 128 0 0 1-128-128v-384a128.085333 128.085333 0 0 1 45.354667-97.749334l298.496-255.786666 0.213333-0.170667A128.042667 128.042667 0 0 1 512 42.666667z m0 85.376a42.666667 42.666667 0 0 0-27.562667 10.069333L185.984 393.813333l-0.213333 0.213334A42.752 42.752 0 0 0 170.666667 426.666667v384a42.666667 42.666667 0 0 0 42.666666 42.666666h128v-298.666666a85.333333 85.333333 0 0 1 85.333334-85.333334h170.666666a85.333333 85.333333 0 0 1 85.333334 85.333334v298.666666h128a42.666667 42.666667 0 0 0 42.666666-42.666666v-384a42.709333 42.709333 0 0 0-15.146666-32.597334l-0.170667-0.213333-298.453333-255.786667v0.042667A42.666667 42.666667 0 0 0 512 128.042667zM426.666667 853.333333h170.666666v-298.666666h-170.666666v298.666666z" /></svg>