<?xml version="1.0" standalone="no"?><!DOCTYPE svg PUBLIC "-//W3C//DTD SVG 1.1//EN" "http://www.w3.org/Graphics/SVG/1.1/DTD/svg11.dtd"><svg class="icon" width="200px" height="200.00px" viewBox="0 0 1024 1024" version="1.1" xmlns="http://www.w3.org/2000/svg"><path fill="#000000" d="M896 597.333333a42.666667 42.666667 0 0 1 42.666667 42.666667v170.666667a128 128 0 0 1-128 128H213.333333a128 128 0 0 1-128-128v-170.666667a42.666667 42.666667 0 1 1 85.333334 0v170.666667a42.666667 42.666667 0 0 0 42.666666 42.666666h597.333334a42.666667 42.666667 0 0 0 42.666666-42.666666v-170.666667a42.666667 42.666667 0 0 1 42.666667-42.666667zM512.853333 85.376a42.666667 42.666667 0 0 1 8.405334 0.981333l1.194666 0.298667a42.325333 42.325333 0 0 1 19.712 11.178667l213.333334 213.333333a42.666667 42.666667 0 1 1-60.330667 60.330667L554.666667 230.997333V640a42.666667 42.666667 0 1 1-85.333334 0V230.997333L328.832 371.498667a42.666667 42.666667 0 1 1-60.330667-60.330667l213.333334-213.333333c2.645333-2.645333 5.632-4.906667 8.874666-6.826667l1.877334-0.981333a42.368 42.368 0 0 1 8.405333-3.242667l2.133333-0.554667 1.408-0.213333A43.178667 43.178667 0 0 1 511.146667 85.333333L512 85.333333l0.853333 0.042667z" /></svg>