<?xml version="1.0" standalone="no"?><!DOCTYPE svg PUBLIC "-//W3C//DTD SVG 1.1//EN" "http://www.w3.org/Graphics/SVG/1.1/DTD/svg11.dtd"><svg class="icon" width="200px" height="200.00px" viewBox="0 0 1024 1024" version="1.1" xmlns="http://www.w3.org/2000/svg"><path fill="#000000" d="M837.879244 137.212793C865.063733 150.696656 887.32373 178.737321 892.460652 206.777943 893.745955 213.839601 894.602109 295.603353 894.602109 423.386976L894.602109 628.653496 837.45224 628.653496C774.950874 628.653496 756.544642 630.580528 731.07246 640.21273 694.257851 654.125764 661.936503 683.020415 644.384215 717.910373 638.17871 730.325589 629.831748 760.076394 628.546444 775.272586 627.690248 782.33639 627.261141 812.945495 627.048712 843.125449L627.048712 898.348436 128.329523 898.348436 128.329523 127.795081 462.877484 127.365931C646.740247 126.936803 802.991517 127.365931 810.055321 128.224231 817.54613 129.292814 829.105278 132.932003 837.879244 137.212793ZM894.602109 748.946396C894.387534 809.306305 893.531381 817.224117 883.68454 837.559377 871.698388 862.816984 849.438392 882.50852 821.612324 892.140785 808.984593 896.636129 803.418521 897.063133 749.695412 897.919286L691.26024 898.777586 691.26024 836.490794C691.26024 778.911776 691.689389 773.133274 695.755583 760.932548 704.531652 734.604212 722.083919 714.700248 746.056223 703.355718 764.03545 694.794138 776.021602 693.508834 839.591551 693.08183L894.602109 692.867298 894.602109 748.946396Z" /></svg>