<?xml version="1.0" standalone="no"?><!DOCTYPE svg PUBLIC "-//W3C//DTD SVG 1.1//EN" "http://www.w3.org/Graphics/SVG/1.1/DTD/svg11.dtd"><svg class="icon" width="200px" height="200.00px" viewBox="0 0 1024 1024" version="1.1" xmlns="http://www.w3.org/2000/svg"><path fill="#000000" d="M325.900083 63.615569C321.111261 64.703374 310.445834 67.970994 302.174818 71.017667 245.146646 92.565219 207.057063 143.933485 203.574868 203.353922L202.268241 224.684775 65.79326 224.684775 65.79326 962.560233 818.904123 962.560233 818.904123 814.548741 958.206911 814.548741 958.206911 61.440024 646.515125 61.656723C474.999272 61.875609 330.688904 62.744506 325.900083 63.615569ZM901.616427 437.99331L901.616427 757.956112 818.904123 757.956112 818.904123 224.684775 257.337544 224.684775 257.337544 215.325976C257.337544 203.789464 262.124221 184.636323 268.436368 171.357642 278.449554 150.026788 302.174818 130.002584 326.552323 122.167089 338.307679 118.46605 353.543084 118.249352 620.397596 118.249352L901.616427 118.030508 901.616427 437.99331ZM762.311493 593.623577L762.311493 905.967604 122.385911 905.967604 122.385911 281.277405 762.311493 281.277405 762.311493 593.623577Z" /></svg>