<?xml version="1.0" standalone="no"?><!DOCTYPE svg PUBLIC "-//W3C//DTD SVG 1.1//EN" "http://www.w3.org/Graphics/SVG/1.1/DTD/svg11.dtd"><svg class="icon" width="200px" height="200.00px" viewBox="0 0 1024 1024" version="1.1" xmlns="http://www.w3.org/2000/svg"><path fill="#000000" d="M718.09977 269.183915L510.196966 477.086568 303.077467 269.969279 95.80347 62.695282 79.327983 79.325268C70.384269 88.427771 63.009139 96.586099 63.009139 97.371464 63.009139 98.154704 155.898875 191.67316 269.343273 305.428701L475.518618 512.078268 268.714552 718.253656C155.115656 831.541368 62.223774 924.901035 62.539207 925.688545 62.852452 926.31512 70.540913 934.943401 79.954558 944.829122L96.745479 962.559906 130.166386 929.452287C157.310814 902.464502 507.214298 554.129601 511.452262 549.893697 512.07888 549.108418 605.753852 641.682635 719.355044 755.285909L926.002401 961.933331 943.731039 944.202548 961.461823 926.471764 755.129834 720.764205C641.528792 607.791926 548.639056 514.902147 548.639056 514.58886 548.639056 513.333564 602.457981 459.042561 786.510081 274.520531 882.695773 178.178195 961.307325 99.096712 961.307325 98.783467 961.307325 98.470137 953.303474 89.839711 943.574395 79.797345L925.843612 61.439987 718.09977 269.183915Z"  /></svg>