<?xml version="1.0" standalone="no"?><!DOCTYPE svg PUBLIC "-//W3C//DTD SVG 1.1//EN" "http://www.w3.org/Graphics/SVG/1.1/DTD/svg11.dtd"><svg class="icon" width="200px" height="200.00px" viewBox="0 0 1024 1024" version="1.1" xmlns="http://www.w3.org/2000/svg"><path fill="#000000" d="M66.255117 512.002103L66.255117 962.559964 435.480565 962.559964C764.250025 962.559964 806.630707 962.13296 821.399894 959.135349 881.759804 946.722193 929.704411 902.843779 950.895825 840.556988L957.745054 820.221728 957.745054 512.002103C957.745054 217.69122 957.530479 203.136607 953.676715 189.011101 948.112789 168.463455 942.975866 157.331311 929.704411 136.998197 908.085994 104.464356 874.481424 79.848328 834.669204 67.433005L818.616858 62.510636 442.54437 61.8691 66.255117 61.439929 66.255117 512.002103ZM837.879244 137.212793C865.063733 150.696656 887.32373 178.737321 892.460652 206.777943 893.745955 213.839601 894.602109 295.603353 894.602109 423.386976L894.602109 628.653496 837.45224 628.653496C774.950874 628.653496 756.544642 630.580528 731.07246 640.21273 694.257851 654.125764 661.936503 683.020415 644.384215 717.910373 638.17871 730.325589 629.831748 760.076394 628.546444 775.272586 627.690248 782.33639 627.261141 812.945495 627.048712 843.125449L627.048712 898.348436 128.329523 898.348436 128.329523 127.795081 462.877484 127.365931C646.740247 126.936803 802.991517 127.365931 810.055321 128.224231 817.54613 129.292814 829.105278 132.932003 837.879244 137.212793ZM894.602109 748.946396C894.387534 809.306305 893.531381 817.224117 883.68454 837.559377 871.698388 862.816984 849.438392 882.50852 821.612324 892.140785 808.984593 896.636129 803.418521 897.063133 749.695412 897.919286L691.26024 898.777586 691.26024 836.490794C691.26024 778.911776 691.689389 773.133274 695.755583 760.932548 704.531652 734.604212 722.083919 714.700248 746.056223 703.355718 764.03545 694.794138 776.021602 693.508834 839.591551 693.08183L894.602109 692.867298 894.602109 748.946396Z"  /><path fill="#000000" d="M263.174804 254.078825C252.044806 265.637973 242.627115 275.911818 242.41254 276.982546 241.983391 277.8387 297.208523 333.488691 364.846812 400.485401 432.482911 467.479964 487.920516 523.132101 487.920516 524.200684 487.920516 525.058983 454.530522 526.127566 413.647487 526.342184L339.160055 526.985866 338.518476 558.448935 337.874751 590.126665 457.955136 590.555815C523.878972 590.982819 580.601901 590.555815 583.811877 589.697515 587.236492 588.843507 591.729689 586.060471 594.085657 583.49201 597.93734 579.211242 598.151915 574.072131 598.151915 456.135391L598.366404 333.276262 535.00897 333.276262 535.00897 482.034577 427.560543 375.013218C368.271426 316.151042 311.763136 260.071901 301.703867 250.654211L283.507918 233.316562 263.174804 254.078825Z"  /></svg>